<svg xmlns="http://www.w3.org/2000/svg" viewBox="0 0 512 512">
  <defs><clipPath id="c"><circle cx="256" cy="256" r="256"/></clipPath></defs>
  <circle cx="256" cy="256" r="256" fill="#2979FF"/>
  <g clip-path="url(#c)"><path d="M 60.0,256.0 L 61.5,253.9 L 63.0,251.8 L 64.5,249.6 L 66.0,247.4 L 67.5,245.3 L 69.0,243.0 L 70.6,240.8 L 72.1,238.5 L 73.6,236.3 L 75.1,234.0 L 76.6,231.7 L 78.1,229.3 L 79.6,227.0 L 81.1,224.7 L 82.6,222.3 L 84.1,220.0 L 85.6,217.6 L 87.1,215.2 L 88.6,212.9 L 90.2,210.5 L 91.7,208.1 L 93.2,205.8 L 94.7,203.4 L 96.2,201.1 L 97.7,198.7 L 99.2,196.4 L 100.7,194.1 L 102.2,191.8 L 103.7,189.6 L 105.2,187.4 L 106.7,185.2 L 108.2,183.0 L 109.8,180.9 L 111.3,178.8 L 112.8,176.7 L 114.3,174.7 L 115.8,172.7 L 117.3,170.8 L 118.8,168.9 L 120.3,167.1 L 121.8,165.4 L 123.3,163.7 L 124.8,162.1 L 126.3,160.5 L 127.8,159.0 L 129.4,157.6 L 130.9,156.3 L 132.4,155.1 L 133.9,153.9 L 135.4,152.9 L 136.9,151.9 L 138.4,151.1 L 139.9,150.3 L 141.4,149.6 L 142.9,149.1 L 144.4,148.6 L 145.9,148.3 L 147.4,148.1 L 149.0,148.0 L 150.5,148.0 L 152.0,148.2 L 153.5,148.5 L 155.0,148.9 L 156.5,149.4 L 158.0,150.1 L 159.5,150.9 L 161.0,151.8 L 162.5,152.9 L 164.0,154.1 L 165.5,155.5 L 167.0,157.0 L 168.6,158.6 L 170.1,160.4 L 171.6,162.4 L 173.1,164.4 L 174.6,166.6 L 176.1,169.0 L 177.6,171.5 L 179.1,174.1 L 180.6,176.9 L 182.1,179.8 L 183.6,182.9 L 185.1,186.0 L 186.6,189.4 L 188.2,192.8 L 189.7,196.3 L 191.2,200.0 L 192.7,203.8 L 194.2,207.7 L 195.7,211.7 L 197.2,215.8 L 198.7,220.0 L 200.2,224.2 L 201.7,228.6 L 203.2,233.0 L 204.7,237.5 L 206.2,242.1 L 207.8,246.7 L 209.3,251.3 L 210.8,256.0 L 212.3,260.7 L 213.8,265.4 L 215.3,270.2 L 216.8,274.9 L 218.3,279.6 L 219.8,284.3 L 221.3,289.0 L 222.8,293.6 L 224.3,298.2 L 225.8,302.7 L 227.4,307.1 L 228.9,311.5 L 230.4,315.7 L 231.9,319.9 L 233.4,323.9 L 234.9,327.8 L 236.4,331.5 L 237.9,335.1 L 239.4,338.6 L 240.9,341.8 L 242.4,344.9 L 243.9,347.8 L 245.4,350.4 L 247.0,352.9 L 248.5,355.1 L 250.0,357.1 L 251.5,358.9 L 253.0,360.4 L 254.5,361.7 L 256.0,362.7 L 257.5,363.4 L 259.0,363.8 L 260.5,364.0 L 262.0,363.9 L 263.5,363.5 L 265.0,362.8 L 266.6,361.8 L 268.1,360.5 L 269.6,358.9 L 271.1,357.0 L 272.6,354.8 L 274.1,352.3 L 275.6,349.6 L 277.1,346.5 L 278.6,343.2 L 280.1,339.6 L 281.6,335.7 L 283.1,331.6 L 284.6,327.2 L 286.2,322.6 L 287.7,317.8 L 289.2,312.7 L 290.7,307.5 L 292.2,302.0 L 293.7,296.4 L 295.2,290.7 L 296.7,284.8 L 298.2,278.7 L 299.7,272.6 L 301.2,266.4 L 302.7,260.2 L 304.2,253.9 L 305.8,247.5 L 307.3,241.2 L 308.8,234.9 L 310.3,228.7 L 311.8,222.5 L 313.3,216.4 L 314.8,210.5 L 316.3,204.7 L 317.8,199.0 L 319.3,193.5 L 320.8,188.3 L 322.3,183.3 L 323.8,178.5 L 325.4,174.0 L 326.9,169.8 L 328.4,165.9 L 329.9,162.4 L 331.4,159.2 L 332.9,156.4 L 334.4,153.9 L 335.9,151.9 L 337.4,150.3 L 338.9,149.1 L 340.4,148.3 L 341.9,148.0 L 343.4,148.1 L 345.0,148.7 L 346.5,149.8 L 348.0,151.3 L 349.5,153.2 L 351.0,155.6 L 352.5,158.5 L 354.0,161.8 L 355.5,165.5 L 357.0,169.6 L 358.5,174.2 L 360.0,179.1 L 361.5,184.4 L 363.0,190.0 L 364.6,196.0 L 366.1,202.3 L 367.6,208.8 L 369.1,215.6 L 370.6,222.6 L 372.1,229.8 L 373.6,237.1 L 375.1,244.6 L 376.6,252.1 L 378.1,259.7 L 379.6,267.3 L 381.1,274.8 L 382.6,282.3 L 384.2,289.7 L 385.7,296.9 L 387.2,304.0 L 388.7,310.8 L 390.2,317.4 L 391.7,323.6 L 393.2,329.6 L 394.7,335.1 L 396.2,340.3 L 397.7,345.0 L 399.2,349.3 L 400.7,353.0 L 402.2,356.3 L 403.8,359.0 L 405.3,361.1 L 406.8,362.7 L 408.3,363.6 L 409.8,364.0 L 411.3,363.7 L 412.8,362.9 L 414.3,361.4 L 415.8,359.3 L 417.3,356.6 L 418.8,353.2 L 420.3,349.3 L 421.8,344.9 L 423.4,339.9 L 424.9,334.3 L 426.4,328.3 L 427.9,321.8 L 429.4,314.9 L 430.9,307.6 L 432.4,300.0 L 433.9,292.0 L 435.4,283.9 L 436.9,275.5 L 438.4,266.9 L 439.9,258.3 L 441.4,249.6 L 443.0,241.0 L 444.5,232.4 L 446.0,223.9 L 447.5,215.6 L 449.0,207.6 L 450.5,199.9 L 452.0,192.5" fill="none" stroke="#fff" stroke-width="50" stroke-linecap="round" stroke-linejoin="round"/></g>
</svg>
