<svg xmlns="http://www.w3.org/2000/svg" viewBox="0 0 1010 360" font-family="Inter, 'Helvetica Neue', Arial, sans-serif">
  <defs>
    <linearGradient id="shift" x1="0" y1="0" x2="1" y2="0">
      <stop offset="0" stop-color="#2979FF"/><stop offset="0.52" stop-color="#7C4DFF"/><stop offset="1" stop-color="#FF3D6E"/>
    </linearGradient>
    <radialGradient id="disc" cx="0.38" cy="0.32" r="0.85">
      <stop offset="0" stop-color="#5C97FF"/><stop offset="0.6" stop-color="#2979FF"/><stop offset="1" stop-color="#1657D6"/>
    </radialGradient>
    <clipPath id="badge"><circle cx="256" cy="256" r="254"/></clipPath>
  </defs>

  <!-- Mark: blue disc + a chirp — a wave whose frequency rises left→right
       (the Doppler up-shift), at 75% scale. -->
  <g transform="translate(22,72) scale(0.42)">
    <circle cx="256" cy="256" r="256" fill="url(#disc)"/>
    <circle cx="256" cy="256" r="248" fill="none" stroke="#fff" stroke-width="4" opacity="0.18"/>
    <g clip-path="url(#badge)">
      <path d="M 68.0,256.0 L 69.4,253.8 L 70.9,251.6 L 72.3,249.3 L 73.8,247.0 L 75.2,244.7 L 76.7,242.3 L 78.1,239.9 L 79.6,237.5 L 81.0,235.1 L 82.5,232.6 L 83.9,230.2 L 85.4,227.7 L 86.8,225.2 L 88.2,222.7 L 89.7,220.2 L 91.1,217.6 L 92.6,215.1 L 94.0,212.6 L 95.5,210.1 L 96.9,207.7 L 98.4,205.2 L 99.8,202.8 L 101.3,200.4 L 102.7,198.0 L 104.2,195.7 L 105.6,193.4 L 107.0,191.1 L 108.5,188.9 L 109.9,186.8 L 111.4,184.8 L 112.8,182.8 L 114.3,180.9 L 115.7,179.1 L 117.2,177.3 L 118.6,175.7 L 120.1,174.2 L 121.5,172.8 L 123.0,171.5 L 124.4,170.3 L 125.8,169.2 L 127.3,168.3 L 128.7,167.6 L 130.2,166.9 L 131.6,166.5 L 133.1,166.2 L 134.5,166.0 L 136.0,166.0 L 137.4,166.2 L 138.9,166.6 L 140.3,167.2 L 141.8,167.9 L 143.2,168.8 L 144.6,170.0 L 146.1,171.3 L 147.5,172.8 L 149.0,174.5 L 150.4,176.4 L 151.9,178.5 L 153.3,180.9 L 154.8,183.4 L 156.2,186.1 L 157.7,189.0 L 159.1,192.1 L 160.6,195.4 L 162.0,198.9 L 163.4,202.6 L 164.9,206.4 L 166.3,210.4 L 167.8,214.6 L 169.2,218.9 L 170.7,223.3 L 172.1,227.9 L 173.6,232.6 L 175.0,237.4 L 176.5,242.3 L 177.9,247.3 L 179.4,252.3 L 180.8,257.4 L 182.2,262.5 L 183.7,267.7 L 185.1,272.8 L 186.6,277.9 L 188.0,283.0 L 189.5,288.0 L 190.9,293.0 L 192.4,297.8 L 193.8,302.6 L 195.3,307.2 L 196.7,311.6 L 198.2,315.8 L 199.6,319.9 L 201.0,323.7 L 202.5,327.3 L 203.9,330.6 L 205.4,333.7 L 206.8,336.4 L 208.3,338.9 L 209.7,341.0 L 211.2,342.7 L 212.6,344.1 L 214.1,345.1 L 215.5,345.8 L 217.0,346.0 L 218.4,345.8 L 219.8,345.2 L 221.3,344.2 L 222.7,342.8 L 224.2,340.9 L 225.6,338.7 L 227.1,336.0 L 228.5,332.9 L 230.0,329.4 L 231.4,325.5 L 232.9,321.2 L 234.3,316.6 L 235.8,311.6 L 237.2,306.3 L 238.6,300.7 L 240.1,294.8 L 241.5,288.7 L 243.0,282.4 L 244.4,275.8 L 245.9,269.2 L 247.3,262.4 L 248.8,255.5 L 250.2,248.6 L 251.7,241.8 L 253.1,234.9 L 254.6,228.2 L 256.0,221.6 L 257.4,215.1 L 258.9,208.9 L 260.3,203.0 L 261.8,197.3 L 263.2,192.0 L 264.7,187.1 L 266.1,182.7 L 267.6,178.6 L 269.0,175.1 L 270.5,172.1 L 271.9,169.7 L 273.4,167.9 L 274.8,166.7 L 276.2,166.1 L 277.7,166.1 L 279.1,166.8 L 280.6,168.1 L 282.0,170.1 L 283.5,172.7 L 284.9,176.0 L 286.4,179.9 L 287.8,184.4 L 289.3,189.5 L 290.7,195.1 L 292.2,201.2 L 293.6,207.8 L 295.0,214.8 L 296.5,222.1 L 297.9,229.8 L 299.4,237.7 L 300.8,245.8 L 302.3,254.1 L 303.7,262.4 L 305.2,270.6 L 306.6,278.8 L 308.1,286.8 L 309.5,294.6 L 311.0,302.1 L 312.4,309.2 L 313.8,315.8 L 315.3,322.0 L 316.7,327.5 L 318.2,332.5 L 319.6,336.7 L 321.1,340.2 L 322.5,342.9 L 324.0,344.8 L 325.4,345.8 L 326.9,346.0 L 328.3,345.2 L 329.8,343.6 L 331.2,341.1 L 332.6,337.8 L 334.1,333.6 L 335.5,328.6 L 337.0,322.8 L 338.4,316.3 L 339.9,309.1 L 341.3,301.4 L 342.8,293.1 L 344.2,284.4 L 345.7,275.4 L 347.1,266.1 L 348.6,256.7 L 350.0,247.2 L 351.4,237.8 L 352.9,228.5 L 354.3,219.5 L 355.8,210.9 L 357.2,202.8 L 358.7,195.3 L 360.1,188.5 L 361.6,182.4 L 363.0,177.2 L 364.5,172.9 L 365.9,169.6 L 367.4,167.4 L 368.8,166.2 L 370.2,166.1 L 371.7,167.2 L 373.1,169.3 L 374.6,172.6 L 376.0,176.9 L 377.5,182.3 L 378.9,188.7 L 380.4,195.9 L 381.8,204.0 L 383.3,212.8 L 384.7,222.2 L 386.2,232.0 L 387.6,242.3 L 389.0,252.7 L 390.5,263.3 L 391.9,273.8 L 393.4,284.0 L 394.8,293.9 L 396.3,303.3 L 397.7,312.1 L 399.2,320.1 L 400.6,327.2 L 402.1,333.3 L 403.5,338.3 L 405.0,342.1 L 406.4,344.7 L 407.8,345.9 L 409.3,345.8 L 410.7,344.3 L 412.2,341.5 L 413.6,337.3 L 415.1,331.9 L 416.5,325.3 L 418.0,317.6 L 419.4,308.9 L 420.9,299.3 L 422.3,289.0 L 423.8,278.2 L 425.2,266.9 L 426.6,255.5 L 428.1,244.0 L 429.5,232.6 L 431.0,221.7 L 432.4,211.2 L 433.9,201.5 L 435.3,192.7 L 436.8,184.9 L 438.2,178.3 L 439.7,173.0 L 441.1,169.1 L 442.6,166.8 L 444.0,166.0" fill="none" stroke="#fff" stroke-width="24" stroke-linecap="round" stroke-linejoin="round"/>
    </g>
  </g>

  <!-- Wordmark: blue→purple→red = the Doppler shift across the letters. -->
  <text x="262" y="236" font-size="208" font-weight="800" letter-spacing="-8" fill="url(#shift)">doppler</text>
  <!-- "signal → shifted" stretched to span "doppler", gradient-aligned. -->
  <text x="270" y="322" font-size="43" font-weight="600" textLength="704" lengthAdjust="spacing" fill="url(#shift)">signal &#8594; shifted</text>
</svg>
